REM MD5 a803224d83937acbd3bb295199af986d
FILE "Himiko-den - Renge (Japan) (Demo).bin" BINARY
  TRACK 01 MODE2/2352
    INDEX 01 00:00:00
  TRACK 02 AUDIO
    INDEX 00 19:08:48
    INDEX 01 19:10:48
  TRACK 03 AUDIO
    INDEX 00 19:36:42
    INDEX 01 19:38:42
REM LEADOUT 25:08:52
